<?xml version="1.0" encoding="UTF-8" standalone="no"?>
<svg
   xmlns:dc="http://purl.org/dc/elements/1.1/"
   xmlns:cc="http://creativecommons.org/ns#"
   xmlns:rdf="http://www.w3.org/1999/02/22-rdf-syntax-ns#"
   xmlns:svg="http://www.w3.org/2000/svg"
   xmlns="http://www.w3.org/2000/svg"
   xmlns:sodipodi="http://sodipodi.sourceforge.net/DTD/sodipodi-0.dtd"
   xmlns:inkscape="http://www.inkscape.org/namespaces/inkscape"
   width="1655"
   height="1655"
   viewBox="66 52 1655 1685"
   version="1.1"
   id="svg3735"
   sodipodi:docname="tabulation logo v3.svg"
   inkscape:version="0.92.4 (5da689c313, 2019-01-14)">
  <metadata
     id="metadata3741">
    <rdf:RDF>
      <cc:Work
         rdf:about="">
        <dc:format>image/svg+xml</dc:format>
        <dc:type
           rdf:resource="http://purl.org/dc/dcmitype/StillImage" />
        <dc:title></dc:title>
      </cc:Work>
    </rdf:RDF>
  </metadata>
  <defs
     id="defs3739" />
  <sodipodi:namedview
     pagecolor="#ffffff"
     bordercolor="#666666"
     borderopacity="1"
     objecttolerance="10"
     gridtolerance="10"
     guidetolerance="10"
     inkscape:pageopacity="0"
     inkscape:pageshadow="2"
     inkscape:window-width="1920"
     inkscape:window-height="1009"
     id="namedview3737"
     showgrid="false"
     inkscape:zoom="0.5"
     inkscape:cx="-718.2987"
     inkscape:cy="940.90263"
     inkscape:window-x="-8"
     inkscape:window-y="-8"
     inkscape:window-maximized="1"
     inkscape:current-layer="svg3735"
     showguides="true"
     inkscape:guide-bbox="true" />
  <path
     d="M 473 1007 L 893 1256 L 1314 1006 L 1314 525 L 894 295 L 893 295 L 473 525 L 473 1007 zM 467 1007 L 468 1487 L 893 1737 L 1318 1486 L 1319 1007 L 1721 768 L 1720 285 L 1297 52 L 1296 52 L 894 289 L 893 289 L 491 52 L 490 52 L 67 284 L 66 769 L 467 1007 z"
     id="path3733"
     stroke="black"
     fill-rule="evenodd"
     fill="black"
     style="fill:#020f40;fill-opacity:1" />
  <path
     style="fill:#020f40;stroke:none;stroke-width:2;opacity:0;fill-opacity:0"
     d="M 619.11326,1531.5468 411.16304,1409.21 410.63768,1173.4242 410.11232,937.63842 213.1296,820.79249 16.146856,703.94653 16.654949,466.06829 17.163042,228.19005 209.16304,122.8831 C 314.76304,64.964277 408.03324,13.79941 416.43016,9.1833937 L 431.6973,0.79063612 628.34382,116.71453 c 108.1556,63.75814 197.82288,115.9239 199.26064,115.9239 1.43774,0 90.5766,-51.88498 198.08634,-115.29995 C 1133.2005,53.923513 1222.154,2.0235123 1223.3653,2.0051495 c 1.2112,-0.01836 95.0362,51.1082235 208.5,113.6146305 l 206.2977,113.64803 v 161.358 c 0,88.74688 0.5932,195.08658 1.3181,236.31044 l 1.318,74.95244 -198.315,117.87486 -198.315,117.87487 -0.01,234.99998 -0.01,235 -186.2812,110 c -102.45472,60.5 -196.2987,115.9052 -208.5422,123.1226 l -22.2609,13.1226 -207.9502,-122.3368 z M 1029.163,1063.7796 c 108.9,-64.61962 201.3787,-119.6769 205.5082,-122.3495 l 7.5082,-4.85928 -0.5082,-236.38895 -0.5082,-236.38898 -205,-112.50942 C 910.5633,282.35101 829.53866,239.00503 826.96912,239.37039 c -2.30666,0.32798 -96.12688,50.92246 -208.48938,112.43218 l -204.29542,111.83586 0.48936,237.91338 0.48936,237.91337 205,121.61622 c 112.75,66.8889 206.35,121.295 208,120.9024 1.65,-0.3927 92.1,-53.5845 200.99996,-118.2042 z"
     id="path3743"
     inkscape:connector-curvature="0"
     transform="matrix(1.0181269,0,0,1.0181269,51,52)" />
  <path
     style="fill:#020f40;stroke:none;stroke-width:2;fill-opacity:0"
     d="m 619.16304,1531.618 c -112.75,-66.4518 -205.70096,-121.0907 -206.55768,-121.4198 -0.85674,-0.329 -2.12934,-106.9861 -2.82802,-237.0156 L 408.507,936.7652 211.6542,820.20181 14.801388,703.63843 l 1.364453,-238 c 0.750449,-130.9 1.506821,-238.0559 1.680827,-238.12422 0.174006,-0.0682 92.909892,-50.84331 206.079752,-112.83333 113.16984,-61.990013 206.76984,-112.6842909 208,-112.6539471 1.23014,0.030344 90.38902,52.0606961 198.13084,115.6230071 177.22334,104.55295 196.38086,115.37883 201,113.58473 2.80818,-1.0907 92.23666,-53.38782 198.72994,-116.21582 L 1223.4114,0.78612752 1431.2662,115.21228 l 207.8549,114.42615 -0.479,236.91606 -0.4791,236.91606 -196,116.50674 -196,116.50671 -1.2201,99.5772 c -0.671,54.7675 -1.346,160.9 -1.5,235.85 l -0.2799,136.2728 -206.9743,122.2272 c -113.83596,67.225 -208.11096,122.1825 -209.50004,122.1278 -1.3891,-0.055 -94.77562,-54.4691 -207.52562,-120.921 z M 1035.9118,1059.6994 1241.163,937.76034 1241.141,700.69939 1241.119,463.63843 1034.9099,350.78719 C 845.64026,247.20633 828.268,238.11099 823.43194,240.06669 c -2.8979,1.1719 -96.1689,51.98178 -207.2689,112.91084 l -202,110.78008 v 237.5419 237.54189 l 205,121.7881 c 112.75,66.9835 206.46196,121.6128 208.2488,121.3985 1.78684,-0.2142 95.61184,-55.2621 208.49996,-122.3286 z"
     id="path4550"
     inkscape:connector-curvature="0"
     transform="matrix(1.0181269,0,0,1.0181269,51,52)" />
  <path
     style="fill:none;fill-opacity:1;stroke:none;stroke-width:2"
     d="m 619.16304,1531.618 c -112.75,-66.4518 -205.70096,-121.0907 -206.55768,-121.4198 -0.85674,-0.329 -2.12934,-106.9861 -2.82802,-237.0156 L 408.507,936.7652 211.6542,820.20181 14.801388,703.63843 l 1.364453,-238 c 0.750449,-130.9 1.506821,-238.0559 1.680827,-238.12422 0.174006,-0.0682 92.909892,-50.84331 206.079752,-112.83333 113.16984,-61.990013 206.76984,-112.6842909 208,-112.6539471 1.23014,0.030344 90.38902,52.0606961 198.13084,115.6230071 177.22334,104.55295 192.33249,116.92457 196.95163,115.13047 2.80818,-1.0907 96.28503,-54.93356 202.77831,-117.76156 L 1223.4114,0.78612752 1431.2662,115.21228 l 207.8549,114.42615 -0.479,236.91606 -0.4791,236.91606 -196,116.50674 -196,116.50671 -1.2201,99.5772 c -0.671,54.7675 -1.346,160.9 -1.5,235.85 l -0.2799,136.2728 -206.9743,122.2272 c -113.83596,67.225 -208.11096,122.1825 -209.50004,122.1278 -1.3891,-0.055 -94.77562,-54.4691 -207.52562,-120.921 z m 416.74876,-471.9186 205.2512,-121.93906 -0.022,-237.06095 -0.022,-237.06096 -201.65,-114.24434 C 851.74427,243.03902 832.82715,236.71789 827.99109,238.67359 c -2.8979,1.1719 -96.16889,51.98179 -207.2689,112.91084 l -202,110.78008 -4.55915,238.935 V 938.8414 l 205,121.7881 c 112.75,66.9835 206.46196,121.6128 208.2488,121.3985 1.78684,-0.2142 95.61184,-55.2621 208.49996,-122.3286 z"
     id="path4554"
     inkscape:connector-curvature="0"
     transform="matrix(1.0181269,0,0,1.0181269,51,52)"
     sodipodi:nodetypes="scscccscssscsccccccccscscsscccscscccscs" />
</svg>
